<svg width="24" height="24" viewBox="0 0 24 24" fill="none" xmlns="http://www.w3.org/2000/svg">
<path d="M15.4641 2H8.53595C4.92624 2 2 4.92624 2 8.53595V15.5948C2 19.2045 4.92624 22.1307 8.53595 22.1307H15.4641C19.0738 22.1307 22 19.2045 22 15.5948V8.53595C22 4.92624 19.0738 2 15.4641 2Z" fill="#ABA6A1"/>
<path d="M11.7698 10.8378H11.7538V10.0682H10.9521V14.2691H11.7538V12.1367C11.7538 11.2308 12.3069 10.7578 13.1007 10.7578C13.2934 10.7557 13.4853 10.7827 13.67 10.8379V9.97215C13.5208 9.93373 13.3669 9.91751 13.213 9.924C12.6759 9.92386 12.1467 10.1723 11.7698 10.8378Z" fill="white"/>
<path d="M4.54681 14.2691H5.46076L5.80626 13.4794L6.77173 11.2388H5.91773L4.54681 14.2691Z" fill="white"/>
<path d="M8.10644 8.54492H7.23602L7.58518 9.33111C7.58518 9.32619 7.58518 9.3283 7.58644 9.33406L8.13396 10.5976L8.68317 11.8642L9.72558 14.2692H10.6955L8.10644 8.54492Z" fill="white"/>
<path d="M17.7371 10.0675H18.5383V15.884H17.7371V13.6808H17.7211C17.4086 14.1863 16.7437 14.41 16.1268 14.41C14.8689 14.41 13.8434 13.6008 13.8434 12.1907C13.8434 10.7806 14.8682 9.97144 16.1268 9.97144C16.7437 9.97144 17.4088 10.2118 17.7211 10.6525H17.7371V10.0675ZM16.2309 13.7369C17.1603 13.7369 17.7851 13.152 17.7851 12.1906C17.7851 11.3894 17.3204 10.6443 16.2309 10.6443C15.1499 10.6443 14.6926 11.3895 14.6926 12.1906C14.6926 13.1601 15.2936 13.737 16.231 13.737L16.2309 13.7369Z" fill="white"/>
</svg>
